{"asset":{"version":"2.0","generator":"VECTARY"},"nodes":[{"translation":[-0.04500000000029104,-0.007955499999999976,-0.04874271576282635],"scale":[0.0005,0.0005,0.0005],"rotation":[-1,0,0,2.220446049250313e-16],"name":"Object_0","mesh":0},{"translation":[-0.04500000000029104,-0.007955499999999976,-0.04874271576282635],"scale":[0.0005,0.0005,0.0005],"rotation":[-1,0,0,2.220446049250313e-16],"name":"Object_1","mesh":1}],"materials":[{"pbrMetallicRoughness":{"baseColorFactor":[0.0289911865471078,0.6592239918133873,1,1],"metallicFactor":0,"roughnessFactor":0.2},"name":"Cozy Cover","emissiveFactor":[0,0,0],"extensions":{},"alphaMode":"OPAQUE","doubleSided":false},{"pbrMetallicRoughness":{"baseColorFactor":[0,0,0,1],"metallicFactor":0,"roughnessFactor":1},"name":"color_4523012","emissiveFactor":[0,0,0],"extensions":{},"alphaMode":"OPAQUE","doubleSided":true}],"meshes":[{"primitives":[{"mode":4,"attributes":{"POSITION":1,"NORMAL":2,"TEXCOORD_0":3},"material":0,"indices":0}]},{"primitives":[{"mode":4,"attributes":{"POSITION":5,"NORMAL":6,"TEXCOORD_0":7},"material":1,"indices":4}]}],"accessors":[{"bufferView":0,"byteOffset":0,"componentType":5125,"count":70959,"type":"SCALAR"},{"bufferView":1,"byteOffset":0,"componentType":5126,"count":47410,"max":[408,0,216],"min":[-212,-12,-407],"type":"VEC3"},{"bufferView":2,"byteOffset":0,"componentType":5126,"count":47410,"type":"VEC3"},{"bufferView":3,"byteOffset":0,"componentType":5126,"count":47410,"type":"VEC2"},{"bufferView":4,"byteOffset":0,"componentType":5125,"count":80838,"type":"SCALAR"},{"bufferView":5,"byteOffset":0,"componentType":5126,"count":63912,"max":[407.3999938964844,0,214.39999389648438],"min":[-213.39999389648438,-16,-406.3999938964844],"type":"VEC3"},{"bufferView":6,"byteOffset":0,"componentType":5126,"count":63912,"type":"VEC3"},{"bufferView":7,"byteOffset":0,"componentType":5126,"count":63912,"type":"VEC2"}],"bufferViews":[{"buffer":0,"byteOffset":0,"byteLength":283836,"target":34963},{"buffer":0,"byteOffset":283836,"byteLength":568920,"target":34962},{"buffer":0,"byteOffset":852756,"byteLength":568920,"target":34962},{"buffer":0,"byteOffset":1421676,"byteLength":379280,"target":34962},{"buffer":0,"byteOffset":1800956,"byteLength":323352,"target":34963},{"buffer":0,"byteOffset":2124308,"byteLength":766944,"target":34962},{"buffer":0,"byteOffset":2891252,"byteLength":766944,"target":34962},{"buffer":0,"byteOffset":3658196,"byteLength":511296,"target":34962}],"scene":0,"scenes":[{"nodes":[0,1],"name":"floor"}],"extensionsUsed":["KHR_texture_transform"],"buffers":[{"byteLength":4169492,"uri":"floor.bin"}]}